<svg width="128" height="128" xmlns="http://www.w3.org/2000/svg" xml:space="preserve"><defs><radialGradient gradientUnits="userSpaceOnUse" gradientTransform="matrix(.53086 .65706 -.49336 .39297 32.084 -7.449)" r="90.951" cy="29.066" cx="43.972" id="a"><stop stop-color="#17A1F3" offset=".506"/><stop stop-color="#1B7FFA" offset=".767"/><stop stop-color="#1366F0" offset=".962"/><stop stop-color="#1160EE" offset="1"/></radialGradient><radialGradient gradientUnits="userSpaceOnUse" gradientTransform="matrix(.83196 -.1652 .10028 .49793 -.046 22.62)" r="40.299" cy="38.972" cx="4.93" id="b"><stop stop-color="#E3DDA6" offset=".344"/><stop stop-color="#E3DDA6" stop-opacity="0" offset=".996"/></radialGradient><radialGradient gradientTransform="matrix(.84842 0 0 .84238 3.781 8.381)" gradientUnits="userSpaceOnUse" r="31.591" cy="107.573" cx="42.188" id="c"><stop stop-color="#E3DDA6" offset=".723"/><stop stop-color="#E3DDA6" stop-opacity="0" offset="1"/></radialGradient><radialGradient gradientTransform="matrix(.84842 0 0 .84238 3.781 8.381)" gradientUnits="userSpaceOnUse" r="22.682" cy="134.216" cx="62.919" id="d"><stop stop-color="#E3DDA6" offset=".403"/><stop stop-color="#E3DDA6" stop-opacity="0" offset="1"/></radialGradient></defs><g stroke="null"><path fill="url(#a)" d="M6.445 62.867c.577 20.554 14.415 50.164 52.136 49.785 36.753-.371 51.55-30.579 50.396-52.279-1.162-21.7-18.377-48.403-52.424-48.21-34.055.186-50.735 28.608-50.108 50.704z"/><path fill="#FFF" d="M57.257 12.155s-.382 1.07 1.841 1.744 3.402.716 4.989 1.44c1.587.716 2.537 1.845 4.802 3.016 2.265 1.171 3.037 1.44 3.445.632.186-.362-.586-1.98-.586-1.98s.365-1.533-.178-2.072c-.458-.455-2.986-1.474-3.894-1.836-.849-.337-3.894-.708-5.354-.8-3.58-.22-5.065-.144-5.065-.144z"/><path fill="#7ADD8A" d="M45.405 50.332c.076.194.551 1.154 1.502 1.415.95.261 3.461.312 4.063.548.611.236 2.088.994 2.486 1.23s1.952 1.533 2.325 1.65c.874.287 1.374-.235 1.773-.1.399.134.637.893 1.426.943.475.034 1.086-.733 1.535-.817s2.75.101 2.8-.632c.05-.733-1.561-2.257-2.511-2.257-.798 0-.925.682-1.536.707-.61.025-1.001-.632-1.714-.606-.712.025-1.086.631-1.476.446-.399-.185-4.65-3.091-5.76-3.412-1.112-.311-4.014.076-4.413.186-.39.126-.627.362-.5.699z"/><path fill="#7ADD8A" d="M26.85 26.282c.636-1.533 1.637-3.85 2.995-5.34 1.366-1.492 3.699-3.564 3.699-3.564s4.157-2.165 10.427-3.782 12.336-1.432 12.336-1.432-.526.488-.484.758c.043.27.043.724 1.137 1.129 1.086.404 3.267.673 3.86 1.356.594.674.773 1.575.094 2.03-.679.455-1.909.312-3.088-.042-1.18-.362-1.137-.405-1.273-.809-.136-.404 1.18-.59 1.001-.994-.178-.404-.772-.227-1.45-.59-.68-.362-1.171-.446-1.596-.27s-.84 1.07-1.026 1.517c-.187.447-.289.598-.475.733s-1.34.076-1.655.101c-.314.025-1.552.598-2.282.935-.738.337-2.282.708-2.63.994-.34.287-.653.758-.076 1.12s1.866.733 2.63.995c.763.26 2.104.286 2.282.522.187.236.025 1.33.161 1.49.127.16.628.81.942.759.314-.05.763-1.255.942-1.617.186-.363 1.442-.784 1.34-1.357-.102-.572-.687-.682-.713-1.019-.025-.337.39-1.044.365-1.23-.025-.185.026-1.23.577-1.33.552-.102 1.315.311 1.943.522s1.264-.026 2.231.623c.976.649.764 1.146 1.239 1.17.475.026.5-.757 1.128-.858.628-.101 1.816 1.07 3.31 1.954s3.52 2.114 4.123 2.974c.602.859.39 1.07.865 1.381s2.053 1.171 2.13 1.542c.076.362-.026.859-1.579.758-1.552-.101-2.205-.497-2.579-.885-.365-.387-.39-.758-.288-.994.102-.236.526-.26.526-.26s.237-.97-.39-1.256c-.628-.286-1.24-.472-3.182-.16-1.943.312-3.258.758-3.521 1.17-.263.422-.025.936.314.936s1.578-.708 2.02-.573c.449.126 0 1.567.339 1.777.339.211 1.366.102 1.917.127.551.025 1.128-.05 1.417.387s-.5.86-1.239 1.171-1.815 1.02-2.13 1.28c-.313.262-.84.498-1.051.051-.213-.446.025-1.28.025-1.28s-1.79.707-2.079 1.044c-.288.337.162 1.382-.424 1.93-.577.547-1.603.126-2.13.362-.525.236-1.442 1.12-2.053 1.853-.602.733-.916 1.12-.916 1.643 0 .522.577 1.044-.365 1.827-.941.784-1.442.599-2.282.995-.84.387-2.104 1.12-2.605 2.215-.5 1.095.128 3.285.238 4.043.102.759.475 2.452-.39 2.477s-.976-.522-1.604-2.215c-.628-1.694-.865-2.452-1.34-2.688-.475-.236-1.078-.025-2.13.101-1.052.127-5.285.312-6.15.312s-1.97-.261-2.945.994c-.975 1.255-.89 1.954-.916 2.898s-.34 1.23-.79 2.039c-.449.808-.576 3.049-.423 3.42.16.362 1.501 1.828 1.73 1.828.238 0 2.418.1 2.783-.026.365-.126.79-.648 1.001-1.17.212-.523.128-.97.713-1.542s1.366-.497 1.867-.522.89-.127 1.34-.186c.45-.05 1.128.624 1.103.86s-1.001 1.23-1.264 1.777l-.263.547s-.187.834-.424 1.197c-.238.362-.425.732-.628.994-.212.26-.077.758.365.859.45.1.364-.236.526-.312.16-.076 2.68-.025 3.207.025s1.315.81 1.391 1.07.102 1.803-.187 2.586c-.288.784-.763 1.197-.814 1.491-.051.287.076.733.076.733s.39.733.976 1.28a6.3 6.3 0 0 0 1.205.885s1.34 0 2.053-.025c.713-.025 1.205-.126 1.68.21.475.337 1.315 1.331 1.501 1.306.187-.025.45-1.044 1.918-2.215 1.468-1.171 2.053-1.306 2.918-1.432.866-.127 1.027.26 1.027.26s.39.338 1.078.051.602-.707 1.654-.648 1.705.623 2.418.808 2.053.287 3.47.363c1.417.075 2.282-.127 2.808-.05.526.075.976.681 1.264.934.289.261.289.682.289.682s.551.127 1.077.497c.526.363 1.027 1.28 1.68 1.542.653.261 1.841.126 3.233.21 1.391.076 1.79.237 2.494.91s1.128 1.567 1.391 2.325c.263.759.654 2.502.654 2.502s1.026-.311 2.63.337c1.603.649 1.73 1.306 1.73 1.306s2.495-.076 3.182-.05c.687.025 2.47 1.23 2.656 1.642.186.421-.187 3.63-.128 4.12.051.496-1.84 3.184-2.316 3.63-.475.446-.789.969-1.527 3.05s-1.264 3.47-1.654 3.858c-.39.387-1.63 1.853-2.919 2.476-1.29.623-2.053.522-2.918.935-.866.421-1.528 1.778-1.943 2.713-.425.935-.161 2.089-.39 2.451-.238.362-3.258 3.31-3.835 3.496-.577.185-3.284-.287-3.733.076s.551 1.406.45 1.752c-.103.337-.976 1.255-1.732 1.828-.763.573-1.416 1.407-1.942 1.49-.526.077-1.18-.286-1.706.313s.051 1.566-.186 1.98c-.238.42-.781.8-1.095 1.372-.314.573-.543.775-.543.775s-2.392.21-3.818.287c-1.417.075-4.293.042-4.293.042s.645-1.255.73-2.51-.314-1.93-.051-2.662c.263-.733 1.103-1.593 1.103-1.593s.602-2.872.551-4.826c-.05-1.955-.288-3.109-.314-3.471-.025-.362.187-6.832.077-7.228-.102-.387-1.502-1.12-2.18-1.718-.688-.598-2.546-1.407-3.046-2.165-.501-.758-.628-1.045-.815-1.331-.187-.287-1.603-2.814-1.943-3.47-.34-.65-1.18-1.23-1.527-2.14s-.34-1.668-.076-1.955.687-.522.602-.859c-.076-.337-.84-.387-.577-1.49s1.18-2.09 1.417-2.3c.238-.211.424.025.653-.186.238-.21 1.706-1.457 1.892-1.693s.128-1.904-.127-2.612c-.263-.707-1.315-1.853-1.705-1.98-.39-.126-1.34.97-2.18.936-.84-.025-1.392 0-2.707-.834s-3.156-2.451-3.547-3.134c-.39-.682-.237-.935-.475-1.305-.237-.363-1.467-1.02-2.155-1.357-.687-.337-1.391-.236-1.79-.497s-2.316-2.375-2.68-2.813c-.366-.447-.688-.573-.943-.598s-.5.337-.712.387c-.212.05-1.918.076-2.18-.05-.264-.127-2.317-1.171-3.335-2.115s-2.316-1.592-2.893-2.375c-.577-.784.025-1.618.102-2.039.076-.421-.026-1.98-.077-2.527-.05-.548-1-1.542-1.128-2.637s-.5-2.19-.602-2.712c-.102-.522-.051-2.35-.187-2.451-.127-.102-.79-.363-.942.783s.212 2.005.289 3.31c.076 1.306.076 2.09.263 2.477.186.388.814 1.196.314 1.457-.501.262-1.154-.286-1.528-1.019-.364-.733-.076-2.114-.39-2.788s-.424-2.005-.5-2.662c-.077-.649-.365-2.3-.289-3.732.076-1.432.526-1.567.526-1.567s0-1.668.026-2.005 1.705-3.47 3.07-5.214c1.4-1.727 2.402-3.083 2.402-3.083z"/><path fill="url(#b)" d="M39.093 56.086c.135-2.123-1.027-2.25-1.392-2.123-.365.126-2.545.025-2.783.025-.237 0-1.578-1.457-1.73-1.828-.162-.362-.026-2.611.424-3.42.45-.809.763-1.095.789-2.039s-.051-1.642.916-2.897c.976-1.256 2.079-.994 2.944-.994s5.1-.186 6.151-.312c1.052-.127 1.655-.337 2.13-.101.475.236.712.994 1.34 2.687.628 1.693.738 2.24 1.604 2.215s.5-1.718.39-2.476c-.102-.758-.738-2.949-.238-4.044.501-1.095 1.765-1.828 2.605-2.215.84-.388 1.34-.21 2.282-.994s.365-1.306.365-1.828.314-.91.916-1.643c.603-.733 1.528-1.617 2.054-1.853.526-.236 1.552.185 2.13-.362.576-.548.126-1.592.423-1.93.289-.336 2.079-1.044 2.079-1.044s-.238.834-.025 1.28c.212.447.738.211 1.052-.05.313-.261 1.391-.969 2.13-1.28s1.526-.733 1.238-1.171-.866-.362-1.417-.388c-.552-.025-1.578.076-1.917-.126-.34-.21.101-1.643-.34-1.778-.45-.126-1.68.573-2.02.573s-.576-.522-.313-.935c.263-.421-8.17-1.196-8.484-1.145-.314.05-.815-.599-.942-.759-.127-.16.025-1.255-.161-1.49-.187-.236-1.527-.262-2.282-.523-.764-.261-2.054-.623-2.63-.994s-.264-.834.076-1.12c.34-.287 1.892-.649 2.63-.994.738-.337 1.968-.91 2.282-.935.314-.026 1.468.025 1.655-.101s.288-.287.475-.733c.186-.447.602-1.331 1.026-1.517s1.366-1.533 1.324-1.802c-.043-.27.483-.758.483-.758s-6.066-.194-12.336 1.432-10.427 3.782-10.427 3.782-2.333 2.072-3.699 3.563c-1.366 1.491-2.358 3.808-2.995 5.34 0 0-1 1.357-2.367 3.11-1.366 1.751-3.046 4.877-3.071 5.214s-.025 2.005-.025 2.005-.45.126-.526 1.566c-.077 1.432.212 3.075.288 3.732.076.649.187 1.98.5 2.662s.026 2.064.39 2.788c.366.733 1.027 1.28 1.528 1.02.5-.261-.127-1.07-.314-1.458-.187-.387-.187-1.17-.263-2.476-.076-1.306-.45-2.165-.288-3.31s.814-.885.941-.784c.128.1.077 1.929.187 2.451.102.522.475 1.617.602 2.713s1.078 2.089 1.129 2.636c.05.548.161 2.115.076 2.527-.076.422-.687 1.256-.102 2.039.577.783 1.867 1.432 2.893 2.375s3.072 1.98 3.335 2.115c.263.126 1.968.1 2.18.05.212-.05.45-.42.713-.387s1.374.96 1.84.884c.807-.143 2.47-.1 2.572-1.668z"/><path fill="url(#c)" d="M52.845 68.418c.102.741.314 2.376.128 2.611-.187.236-1.655 1.491-1.892 1.694-.238.21-.424-.026-.654.185-.237.21-1.153 1.196-1.416 2.3s.5 1.145.577 1.49-.34.573-.603.86-.263 1.044.077 1.954 1.179 1.491 1.527 2.14c.339.648 1.764 3.184 1.943 3.47.186.287.313.573.814 1.331.5.759 2.367 1.567 3.046 2.165.687.598 2.078 1.331 2.18 1.719s-.102 6.865-.076 7.227c.025.363.263 1.517.314 3.471s-.552 4.827-.552 4.827-.84.86-1.103 1.592c-.263.733.128 1.407.051 2.662-.076 1.255-.73 2.51-.73 2.51s2.868.034 4.294-.042c1.417-.076 3.818-.286 3.818-.286s.229-.202.543-.775.856-.952 1.094-1.373c.238-.422-.34-1.382.187-1.98.526-.598 1.179-.236 1.705-.312.526-.075 1.18-.91 1.943-1.49.763-.573 1.629-1.492 1.73-1.829.102-.337-.89-1.381-.449-1.752.45-.362 3.156.101 3.733-.076.577-.185 3.597-3.133 3.835-3.495.237-.363-.026-1.517.39-2.452.424-.935.704-15.87-3.784-22.357-5.252-7.598-23.17-9.813-22.67-5.989z"/><path fill="url(#d)" d="M52.862 68.452c.102.741.314 2.375.128 2.611-.187.236-1.655 1.491-1.892 1.693-.238.21-.424-.025-.654.186-.237.21-1.153 1.196-1.416 2.3s.5 1.145.577 1.49-.34.573-.603.86-.263 1.044.076 1.954c.34.91 1.18 1.49 1.528 2.14.339.648 1.764 3.184 1.943 3.47s.313.573.814 1.331c.5.758 2.367 1.567 3.046 2.165.687.598 2.078 1.331 2.18 1.719.102.387-.102 6.865-.076 7.227.025.362.263 1.516.314 3.47.05 1.955-.552 4.828-.552 4.828s-.84.859-1.103 1.592c-.263.733.128 1.407.051 2.662-.076 1.255-.73 2.51-.73 2.51s2.868.034 4.294-.042c1.417-.076 3.818-.287 3.818-.287s.229-.202.543-.775c.313-.572.856-.951 1.094-1.373.238-.42-.34-1.381.187-1.98.526-.597 1.179-.235 1.705-.31.526-.077 1.18-.91 1.943-1.492.763-.573 1.629-1.491 1.73-1.828.102-.337-.89-1.381-.449-1.752s3.156.101 3.733-.076c.577-.185 3.597-3.134 3.835-3.496.237-.362-.026-1.516.39-2.451.424-.935.704-15.87-3.784-22.357-5.26-7.607-23.179-9.814-22.67-5.99z"/><path fill="#4B9EEC" d="M43.835 27.032c.238.32 1.315-.068 1.824-.042.51.025 1.06.227 1.129.69.068.455-.441.531-.738 1.12-.153.304-1.18 2.35-.62 2.587.738.32 1.103-.413 1.264-.758.162-.346.552-1.079.552-1.079s.441-.96 1.018-.893c1.035.118.62 1.584.62 1.584s-.23 1.095.322 1.348c.551.253 1.086.067 1.383-.042.297-.118.806 0 1.408-.253.602-.253.857-.48 1.264-.64.416-.16.78-.067.832-.438.042-.362-.323-.733-.942-.775s-1.383.665-1.638.893c-.254.227-1.086.387-1.179-.202s.441-.64.832-.868c.39-.227.644-.548.644-.548s-.712-.918-.924-.985c-.204-.068-1.035.185-1.867-.388-.772-.53-1.086-1.255-1.29-1.44s-1.128-.48-2.027-.295-2.24.918-1.867 1.424z"/></g><g stroke="null"><path fill="#BDBDBD" d="M88.494 119.793c1.564-.811 3.82-2.4 6.804-4.86l-3.532-3.5c-2.432 2.952-4.023 5.207-4.834 6.8a1.61 1.61 0 0 1 1.562 1.56z"/><path fill="#616161" d="M86.465 120.254c.23.23.753.145 1.535-.23.146-.06.318-.147.464-.231a1.615 1.615 0 0 0-1.564-1.564c-.088.175-.175.318-.23.464-.348.782-.407 1.33-.205 1.56z"/><path fill="#EEE" d="m88.517 117.322-.146.126c-.09.076-.198.157-.315.128.052-.213.166-.405.277-.595.812-1.37 1.404-2.418 2.578-3.517.078-.073.166-.15.271-.167.172-.026.324.114.418.257.096.146.25.423.224.607-.026.195-.242.312-.388.443-1.065.96-1.827 1.776-2.919 2.718z"/><path fill="#BDBDBD" d="M116.529 86.484a99.26 99.26 0 0 1-.818-.735 1.495 1.495 0 0 0-1.083-.364 1.487 1.487 0 0 0-1.021.487l-3.497 3.412c-1.588 1.552-5.439 5.323-5.695 5.644-.257.324-.085.505-.056.537.385.423 1.077.481 1.582.207.502-.274.82-.82.914-1.386.061-.367.085-.55.356-.79.1-.087 5.631-5.247 6.478-6.21.14-.16.56-.495 1.021-.143.073.056 1.673 1.403 1.673 1.403l1.019-1.155-.003-.067c-.006-.078-.006-.078-.87-.84z"/><path fill="#1565C0" d="m106.467 100.257-2.23-2.228c-9.09 9.202-12.287 12.734-13.072 13.746a.445.445 0 0 0 .038.589l3.173 3.057c.16.16.411.175.59.038 1.012-.785 4.553-3.86 13.76-12.942-.03-.032-2.26-2.26-2.26-2.26z"/><path fill="none" d="m120.978 89.173-.03-.029c.348-.752-.116-1.621-.928-2.403-.811-.782-1.681-1.275-2.405-.928l-.03-.029s-6.836 4.775-14.134 12.417c-.201.23-.201.577 0 .781l4.344 4.34c.201.202.552.23.782 0 7.622-7.318 12.4-14.149 12.4-14.149z"/><path fill="#757575" d="M115.665 87.269c-.181-.28-.622-.677-.926-.814-.347-.154-.604-.003-.826.193-.39.344-2.992 3.042-3.561 3.75-.064.082-.131.173-.131.275 1.485-1.41 2.998-2.8 3.48-3.217.367-.318.723-.601 1.012-.313.03.03.23.19.596.496l.356-.37z"/><path fill="#1565C0" d="M120.978 89.173c.359-.516-.146-1.65-.955-2.432-.811-.782-1.918-1.324-2.435-.954-.513.37-6.836 4.775-14.134 12.417-.201.23-.201.577 0 .781l4.344 4.34c.201.201.551.23.782 0 7.619-7.32 12.041-13.635 12.398-14.152z"/><path fill="#2196F3" d="M93.61 111.644c-.323.253-1.284.708-.545-.447.175-.27.768-1.003 1.019-1.298.966-1.143 6.5-6.734 7.484-7.767.8-.84 1.507-1.044 1.737-.46.158.402-.17.869-1.874 2.683-1.419 1.505-6.142 5.961-7.82 7.289zm15.872-15.485s-1.025 1.237-1.769.61c-.59-.5.777-1.68.777-1.68.035-.038 4.72-4.437 6.112-5.554.572-.46 1.302-.974 1.504-.796.201.178-.132.744-1.01 1.616-.882.872-5.582 5.769-5.614 5.804z"/><path fill="none" d="m120.978 89.173-.03-.029c.348-.752-.116-1.621-.928-2.403-.811-.782-1.681-1.275-2.405-.928l-.03-.029s-6.836 4.775-14.134 12.417c-.201.23-.201.577 0 .781l4.344 4.34c.201.202.552.23.782 0 7.622-7.318 12.4-14.149 12.4-14.149z"/><path fill="#EEE" d="M106.154 93.694c-.227.15-.137.829-.277 1.176-.114.277-.111.423.123.353.248-.076.525-.45.525-1.03-.003-.283-.134-.656-.37-.499z"/><path fill="#0D47A1" d="m115.414 87.4-.263.204a12.2 12.2 0 0 1 2.184 1.753c.353.353.84.916 1.01 1.257.157.324.216.82.081 1.284-.146.504-.376.732-.47 1.245.464-.574 1.401-1.773 1.401-1.773s-.405-1.042-1.792-2.43c-1.386-1.388-2.151-1.54-2.151-1.54z"/><path fill="#0D47A1" d="M120.023 86.741c-.628-.604-1.43-1.065-2-1.073 0 0 1.025.548 1.615 1.315.624.81 1.03 1.549.75 2.013-.467.67-4.606 6.542-11.904 13.609a.282.282 0 0 1-.432-.047c-.415-.639-.97-1.312-1.798-2.138-1.186-1.184-1.95-1.718-2.84-2.167 0 0-.205.108-.258.467-.035.23-.014.417-.014.417l.25-.23c.698.39 1.548 1.02 2.453 1.927.388.388.738.78 1.042 1.155.04.076.344.718-.277 1.712 0 0-.094.12-.234.307-7.306 7.16-10.704 10.214-11.373 10.669-.7.475-1.071.315-1.071.315.088.087.28.303.496.472.22.172.456.056.534-.008.847-.657 3.457-2.908 9.654-8.92.009-.008.017-.014.023-.023.911-.884 1.9-1.849 2.972-2.902.006 0 .19.02.417-.015.356-.052.49-.218.49-.218v-.003a.913.913 0 0 0 .062-.05c7.619-7.32 12.038-13.635 12.398-14.152s-.143-1.65-.955-2.432z"/><path fill="#FFC107" d="M107.54 99.14c-.895-.896-1.937-1.715-2.869-2.19 0 0-.23-.015-.446.224-.164.18-.202.437-.202.437.707.313 1.74.98 2.905 2.141.876.875 1.588 1.797 2.005 2.602.085.163.15.306.199.437 0 0 .257.003.473-.183.242-.213.192-.47.192-.47-.46-.965-1.316-2.06-2.256-2.998z"/><path fill="#BDBDBD" d="M118.654 88.039a14.17 14.17 0 0 0-1.932-1.622s-.45-.172-.862.207-.443.78-.443.78c.613.375 1.345.935 2.142 1.732.745.743 1.37 1.525 1.798 2.237 0 0 .456-.035.777-.417s.207-.89.207-.89a13.691 13.691 0 0 0-1.687-2.027z"/><path fill="#EEE" d="M116.33 86.773c-.154.032-.3.152-.31.31-.008.16.12.288.24.396.374.338.762.682 1.24.843.106.035.243.055.316-.03.047-.052.05-.13.044-.2-.023-.29-.17-.555-.36-.774-.297-.338-.688-.644-1.17-.545z"/></g></svg>